<svg width="22" height="18" viewBox="0 0 22 18" fill="none" xmlns="http://www.w3.org/2000/svg">
<path d="M0.0651287 4.50202C0.0976931 4.21437 0.113975 3.81546 0.113975 3.30528C0.113975 2.33378 0.0759835 1.23202 0 0C1.05834 0.0325644 2.87652 0.0488465 5.45453 0.0488465C8.02169 0.0488465 9.83172 0.0325644 10.8846 0C10.8087 1.23202 10.7707 2.33378 10.7707 3.30528C10.7707 3.81546 10.7869 4.21437 10.8195 4.50202H10.4369C10.0732 3.04205 9.60106 1.99185 9.02033 1.35142C8.44502 0.705561 7.82359 0.382631 7.15602 0.382631H7.13974V9.92399C7.13974 10.3907 7.18587 10.73 7.27813 10.9416C7.37583 11.1533 7.5495 11.2944 7.79916 11.365C8.04882 11.4355 8.44502 11.4708 8.98776 11.4708V11.8046C7.42467 11.772 6.20622 11.7557 5.33241 11.7557C4.54544 11.7557 3.40298 11.772 1.90501 11.8046V11.4708C2.44775 11.4708 2.84395 11.4355 3.09361 11.365C3.34327 11.2944 3.51424 11.1533 3.6065 10.9416C3.7042 10.73 3.75304 10.3907 3.75304 9.92399V0.382631H3.73676C3.05834 0.382631 2.43147 0.702847 1.85617 1.34328C1.28629 1.97828 0.816823 3.0312 0.44776 4.50202H0.0651287Z" fill="#00AC66"/>
<path d="M11.1805 10.0598C11.2131 9.77214 11.2293 9.37322 11.2293 8.86305C11.2293 7.89154 11.1913 6.78978 11.1154 5.55777C12.1737 5.59033 13.9919 5.60661 16.5699 5.60661C19.137 5.60661 20.9471 5.59033 22 5.55777C21.924 6.78978 21.886 7.89154 21.886 8.86305C21.886 9.37322 21.9023 9.77214 21.9349 10.0598H21.5522C21.1886 8.59982 20.7164 7.54962 20.1357 6.90919C19.5604 6.26333 18.939 5.9404 18.2714 5.9404H18.2551V15.4818C18.2551 15.9485 18.3012 16.2877 18.3935 16.4994C18.4912 16.7111 18.6649 16.8522 18.9145 16.9227C19.1642 16.9933 19.5604 17.0286 20.1031 17.0286V17.3623C18.54 17.3298 17.3216 17.3135 16.4478 17.3135C15.6608 17.3135 14.5183 17.3298 13.0204 17.3623V17.0286C13.5631 17.0286 13.9593 16.9933 14.209 16.9227C14.4586 16.8522 14.6296 16.7111 14.7219 16.4994C14.8196 16.2877 14.8684 15.9485 14.8684 15.4818V5.9404H14.8521C14.1737 5.9404 13.5468 6.26061 12.9715 6.90104C12.4017 7.53605 11.9322 8.58896 11.5631 10.0598H11.1805Z" fill="#00AC66"/>
</svg>
